<mxfile host="app.diagrams.net" modified="2022-07-23T14:20:03.035Z" agent="5.0 (Macintosh; Intel Mac OS X 10_15_7) AppleWebKit/537.36 (KHTML, like Gecko) Chrome/90.0.4430.72 Safari/537.36 Edg/90.0.818.41" etag="CdhDZtv4T5qp0Hpc_l8u" version="16.6.6" type="github">
  <diagram id="1_TYKOrEbgObRacJn4iA" name="Page-1">
    <mxGraphModel dx="946" dy="1790" grid="1" gridSize="10" guides="1" tooltips="1" connect="1" arrows="1" fold="1" page="1" pageScale="1" pageWidth="827" pageHeight="1169" math="0" shadow="0">
      <root>
        <mxCell id="0" />
        <mxCell id="1" parent="0" />
        <mxCell id="QD5GBtbCfy66Qi_0RQ-Y-1" value="智能配置化云平台" style="rounded=0;whiteSpace=wrap;html=1;" vertex="1" parent="1">
          <mxGeometry x="530" y="190" width="250" height="180" as="geometry" />
        </mxCell>
        <mxCell id="QD5GBtbCfy66Qi_0RQ-Y-2" value="智能控制云平台" style="rounded=0;whiteSpace=wrap;html=1;" vertex="1" parent="1">
          <mxGeometry x="230" y="190" width="250" height="180" as="geometry" />
        </mxCell>
        <mxCell id="QD5GBtbCfy66Qi_0RQ-Y-3" value="控制终端大屏" style="rounded=0;whiteSpace=wrap;html=1;" vertex="1" parent="1">
          <mxGeometry x="590" y="10" width="120" height="100" as="geometry" />
        </mxCell>
        <mxCell id="QD5GBtbCfy66Qi_0RQ-Y-4" value="智慧网关" style="rounded=0;whiteSpace=wrap;html=1;" vertex="1" parent="1">
          <mxGeometry x="320" y="-40" width="170" height="140" as="geometry" />
        </mxCell>
        <mxCell id="QD5GBtbCfy66Qi_0RQ-Y-5" value="移动终端手机" style="rounded=0;whiteSpace=wrap;html=1;" vertex="1" parent="1">
          <mxGeometry x="150" y="50" width="120" height="60" as="geometry" />
        </mxCell>
        <mxCell id="QD5GBtbCfy66Qi_0RQ-Y-6" value="PC配置终端" style="rounded=0;whiteSpace=wrap;html=1;" vertex="1" parent="1">
          <mxGeometry x="770" y="60" width="120" height="60" as="geometry" />
        </mxCell>
        <mxCell id="QD5GBtbCfy66Qi_0RQ-Y-7" value="安全认证中心" style="rounded=1;whiteSpace=wrap;html=1;" vertex="1" parent="1">
          <mxGeometry x="540" y="200" width="120" height="60" as="geometry" />
        </mxCell>
        <mxCell id="QD5GBtbCfy66Qi_0RQ-Y-8" value="用户中心" style="rounded=1;whiteSpace=wrap;html=1;" vertex="1" parent="1">
          <mxGeometry x="670" y="200" width="120" height="60" as="geometry" />
        </mxCell>
        <mxCell id="QD5GBtbCfy66Qi_0RQ-Y-9" value="租户控制中心" style="rounded=1;whiteSpace=wrap;html=1;" vertex="1" parent="1">
          <mxGeometry x="540" y="290" width="120" height="60" as="geometry" />
        </mxCell>
        <mxCell id="QD5GBtbCfy66Qi_0RQ-Y-10" value="房屋管理" style="rounded=1;whiteSpace=wrap;html=1;" vertex="1" parent="1">
          <mxGeometry x="810" y="200" width="120" height="60" as="geometry" />
        </mxCell>
        <mxCell id="QD5GBtbCfy66Qi_0RQ-Y-11" value="场景控制管理" style="rounded=1;whiteSpace=wrap;html=1;" vertex="1" parent="1">
          <mxGeometry x="540" y="390" width="120" height="60" as="geometry" />
        </mxCell>
        <mxCell id="QD5GBtbCfy66Qi_0RQ-Y-12" value="设备管理" style="rounded=1;whiteSpace=wrap;html=1;" vertex="1" parent="1">
          <mxGeometry x="830" y="290" width="120" height="60" as="geometry" />
        </mxCell>
        <mxCell id="QD5GBtbCfy66Qi_0RQ-Y-13" value="智能配置中心" style="rounded=1;whiteSpace=wrap;html=1;" vertex="1" parent="1">
          <mxGeometry x="680" y="290" width="120" height="60" as="geometry" />
        </mxCell>
        <mxCell id="QD5GBtbCfy66Qi_0RQ-Y-14" value="设备协议管理" style="rounded=1;whiteSpace=wrap;html=1;" vertex="1" parent="1">
          <mxGeometry x="680" y="390" width="120" height="60" as="geometry" />
        </mxCell>
        <mxCell id="QD5GBtbCfy66Qi_0RQ-Y-15" value="终端控制中心" style="rounded=1;whiteSpace=wrap;html=1;" vertex="1" parent="1">
          <mxGeometry x="240" y="200" width="120" height="60" as="geometry" />
        </mxCell>
        <mxCell id="QD5GBtbCfy66Qi_0RQ-Y-16" value="加密通讯协议" style="rounded=1;whiteSpace=wrap;html=1;" vertex="1" parent="1">
          <mxGeometry x="370" y="200" width="120" height="60" as="geometry" />
        </mxCell>
        <mxCell id="QD5GBtbCfy66Qi_0RQ-Y-17" value="控制协议族" style="rounded=1;whiteSpace=wrap;html=1;" vertex="1" parent="1">
          <mxGeometry x="240" y="270" width="120" height="60" as="geometry" />
        </mxCell>
        <mxCell id="QD5GBtbCfy66Qi_0RQ-Y-18" value="集群控制中心" style="rounded=1;whiteSpace=wrap;html=1;" vertex="1" parent="1">
          <mxGeometry x="370" y="340" width="120" height="60" as="geometry" />
        </mxCell>
        <mxCell id="QD5GBtbCfy66Qi_0RQ-Y-19" value="监控中心" style="rounded=1;whiteSpace=wrap;html=1;" vertex="1" parent="1">
          <mxGeometry x="240" y="340" width="120" height="60" as="geometry" />
        </mxCell>
        <mxCell id="QD5GBtbCfy66Qi_0RQ-Y-20" value="数据存储服务" style="shape=cylinder3;whiteSpace=wrap;html=1;boundedLbl=1;backgroundOutline=1;size=15;" vertex="1" parent="1">
          <mxGeometry x="255" y="560" width="90" height="80" as="geometry" />
        </mxCell>
        <mxCell id="QD5GBtbCfy66Qi_0RQ-Y-21" value="控制协议转换" style="rounded=1;whiteSpace=wrap;html=1;" vertex="1" parent="1">
          <mxGeometry x="370" y="270" width="120" height="60" as="geometry" />
        </mxCell>
        <mxCell id="QD5GBtbCfy66Qi_0RQ-Y-22" value="数据存储服务" style="shape=cylinder3;whiteSpace=wrap;html=1;boundedLbl=1;backgroundOutline=1;size=15;" vertex="1" parent="1">
          <mxGeometry x="670" y="530" width="90" height="80" as="geometry" />
        </mxCell>
        <mxCell id="QD5GBtbCfy66Qi_0RQ-Y-23" value="高速一级缓存" style="rounded=1;whiteSpace=wrap;html=1;" vertex="1" parent="1">
          <mxGeometry x="250" y="430" width="380" height="60" as="geometry" />
        </mxCell>
        <mxCell id="QD5GBtbCfy66Qi_0RQ-Y-24" value="二级缓存" style="rounded=1;whiteSpace=wrap;html=1;" vertex="1" parent="1">
          <mxGeometry x="250" y="490" width="400" height="60" as="geometry" />
        </mxCell>
        <mxCell id="QD5GBtbCfy66Qi_0RQ-Y-25" value="LVS四层负载与连接控制" style="rounded=1;whiteSpace=wrap;html=1;" vertex="1" parent="1">
          <mxGeometry x="220" y="120" width="260" height="60" as="geometry" />
        </mxCell>
        <mxCell id="QD5GBtbCfy66Qi_0RQ-Y-26" value="Nginx七层负载" style="rounded=1;whiteSpace=wrap;html=1;" vertex="1" parent="1">
          <mxGeometry x="550" y="120" width="280" height="60" as="geometry" />
        </mxCell>
        <mxCell id="QD5GBtbCfy66Qi_0RQ-Y-27" value="SES配置组件" style="rounded=1;whiteSpace=wrap;html=1;" vertex="1" parent="1">
          <mxGeometry x="820" y="-10" width="120" height="60" as="geometry" />
        </mxCell>
        <mxCell id="QD5GBtbCfy66Qi_0RQ-Y-28" value="设备控制" style="rounded=1;whiteSpace=wrap;html=1;" vertex="1" parent="1">
          <mxGeometry x="330" y="-20" width="120" height="60" as="geometry" />
        </mxCell>
        <mxCell id="QD5GBtbCfy66Qi_0RQ-Y-29" value="云端控制通讯" style="rounded=1;whiteSpace=wrap;html=1;" vertex="1" parent="1">
          <mxGeometry x="330" y="50" width="120" height="60" as="geometry" />
        </mxCell>
        <mxCell id="QD5GBtbCfy66Qi_0RQ-Y-30" value="控制信号转换" style="rounded=1;whiteSpace=wrap;html=1;" vertex="1" parent="1">
          <mxGeometry x="450" y="-20" width="120" height="60" as="geometry" />
        </mxCell>
        <mxCell id="QD5GBtbCfy66Qi_0RQ-Y-31" value="本地控制通讯" style="rounded=1;whiteSpace=wrap;html=1;" vertex="1" parent="1">
          <mxGeometry x="450" y="50" width="120" height="60" as="geometry" />
        </mxCell>
        <mxCell id="QD5GBtbCfy66Qi_0RQ-Y-32" value="设备组件可视化" style="rounded=1;whiteSpace=wrap;html=1;" vertex="1" parent="1">
          <mxGeometry x="595" y="-30" width="120" height="60" as="geometry" />
        </mxCell>
        <mxCell id="QD5GBtbCfy66Qi_0RQ-Y-33" value="设备配置存储" style="rounded=1;whiteSpace=wrap;html=1;" vertex="1" parent="1">
          <mxGeometry x="595" y="30" width="120" height="60" as="geometry" />
        </mxCell>
        <mxCell id="QD5GBtbCfy66Qi_0RQ-Y-34" value="设备控制通讯" style="rounded=1;whiteSpace=wrap;html=1;" vertex="1" parent="1">
          <mxGeometry x="590" y="70" width="120" height="60" as="geometry" />
        </mxCell>
      </root>
    </mxGraphModel>
  </diagram>
</mxfile>
